<svg id="Layer_1" data-name="Layer 1" xmlns="http://www.w3.org/2000/svg" viewBox="0 0 1000 1000"><defs><style>.cls-1{fill:#383534;}.cls-1,.cls-4,.cls-6,.cls-7{fill-rule:evenodd;}.cls-2{fill:none;stroke:#383534;stroke-miterlimit:31.04;stroke-width:0.9px;}.cls-3,.cls-7{fill:#fff;}.cls-4{fill:#f2f3f4;}.cls-5{fill:#ac3a39;}.cls-6{fill:#282828;}</style></defs><path class="cls-1" d="M500.63,651.44h13.75v4.68H500.63Z"/><path class="cls-1" d="M492,651.54V656H478.75v-4.48Z"/><path class="cls-1" d="M446.55,631.54v3.85H433v-3.85Z"/><path class="cls-1" d="M537.19,631.54h13.13v4H537.19Z"/><path class="cls-1" d="M470,644.77V641h13.86v3.75Z"/><path class="cls-1" d="M512.4,635.29v-3.75h14.38v3.75Z"/><path class="cls-1" d="M517.3,644.77v-3.86h13.85v3.86Z"/><path class="cls-1" d="M562.72,635.39v-3.85h7.09v3.85Z"/><path class="cls-2" d="M468.85,407c-1.88,19.17-7.09,34.38-11.46,34s-6.46-16.36-4.48-35.53,7-34.49,11.46-34.07S470.72,387.74,468.85,407Z"/><path class="cls-2" d="M455.41,411.18c-15.63-11.36-26.26-23.44-23.65-27s17.4,2.6,33,14,26.26,23.44,23.66,27S471,422.75,455.41,411.18Z"/><path class="cls-2" d="M464.26,413.47c-18.23,6.46-34.17,8.34-35.63,4.17s12-12.81,30.22-19.27,34.17-8.44,35.63-4.28S482.18,406.91,464.26,413.47Z"/><path class="cls-1" d="M464.26,405.87a2.81,2.81,0,1,1-2.81-2.82,2.81,2.81,0,0,1,2.81,2.82"/><path class="cls-1" d="M499.06,335.44a164.61,164.61,0,0,0-164.2,165v.1A164.57,164.57,0,1,0,664,500.36a164.61,164.61,0,0,0-164.3-164.92h-.63M368.31,413.16q-10.43,64.48-20.84,129.09A152.42,152.42,0,0,1,368.31,413.16Zm5.62,62.51,3.86,2.92c-2.92,4.69-6.25,5.73-9.69,2.5Zm-4.06-12.4a.93.93,0,0,1,.52-.83l1.77-1.46,3.44,3.13C373.31,466.82,373.31,466.82,369.87,463.27Zm20.84-25a40.65,40.65,0,0,1-11.57-6.77,39.65,39.65,0,0,0-.83-5.63c-.1-1.15-.63-2.92-1.15-5.52a39.09,39.09,0,0,1,13.13-11.46,42.44,42.44,0,0,0-2.19,14.27,39,39,0,0,0,3.23,14.9Zm-20.84,69.8-10.42,6.36c.63-4.38,1.15-7.61,1.77-11.77Zm-5.1-10.41,6.35-5,10.42,8.44c-2.71,2.71-5.21,4.38-8.75,1.46s-5.21-3.54-8.23-5.42Zm5.73,38.54a3.36,3.36,0,0,1,2.81,0l13,8.34a1.5,1.5,0,0,1,0,.73h-28C362.79,541.94,366.43,538.91,370.5,536.2ZM355,540c.84-5.21,1.46-9.28,2.29-14l8.55,5.63Zm34.28-18.45c1.25,6.78,2.4,12.82,3.65,19.8L377,530.89Zm-10.42,0c-8.44,6.67-8.44,6.67-17.4-.93a68,68,0,0,1,14.17-7.82c2.29-.73,5.84,2.3,9.38,4Zm1.67-31.25-3.34-2.81,5.53-3.55c.52,3.44,1,6.15,1.66,9.59ZM362,577.88c-4.17-8.34-8.23-16.88-12.5-25.73H400a72.07,72.07,0,0,1-35,26.56c-.93.52-2.71.11-3-.83Zm40.53-18.55h.94v26.78H399v-22.3c-.1-.83,2.71-2.5,3.44-4.16Zm-8.54,9.8v17.61h-5.42a13.23,13.23,0,0,1,5.42-17.3Zm-10.42,8.44v9.06h-5.31c-1.57-5.52-1.46-5.62,5-8.75ZM367,585.28l6.25-2.4v4.06h-6.14a5.12,5.12,0,0,1-.42-1.35Zm59,54.17c-9-3.43-9.89-5.73-7.81-17.81h7.4v2.29Zm.63-22.4H416.13c-2.61,0-2.61,0-2.4-3.64h15.11c.83,3.12,0,4.06-2.6,4Zm-10.42-10.41,5-3.86,5.11,3.86a17.36,17.36,0,0,1-5.32,2.39c-1.46.11-3.12-1.56-4.69-2.39Zm159.3,31.25c0,1-1.56,2.29-2.71,2.81-8.54,3.76-17.19,7.3-25.73,10.42-3.13,1.36-6.36,2.5-9.07,3.55-4.06-6.57-9.89-1.78-15.42-4.17.63,3,.94,4.89,1.36,7a161.58,161.58,0,0,1-53.87-.94,17.14,17.14,0,0,0-.62-5.31H457a23.61,23.61,0,0,1-7.19-.84c-5.83-2-11.67-4.37-17.4-6.87a4.18,4.18,0,0,1-2.39-3V626.33H575.85a103,103,0,0,1-.31,11.25Zm4.69-1.77V621.74h7.4c1.77,8.23.93,10.42-7.3,14.07Zm9.58-18.75h-12c-.62,0-1.25-1.15-1.87-1.88s1.35-1.56,2.08-1.67a58.84,58.84,0,0,1,5.94,0,35.27,35.27,0,0,1,5.63,0c.83,0,1.46,1.25,2.29,1.88s-1.25,1.25-2,1.35Zm-11-10.42a16.82,16.82,0,0,1,5.42-2.5c1.56,0,3.12,1.56,4.79,2.5l-5.21,3.44Zm14,21.56v-6.25l3.65-.62c-1.36-4.38,2-9.38-3-13.44,0-5.11-3.23-8.34-9.38-8.34a8.35,8.35,0,0,0-9.53,6.95,7.92,7.92,0,0,0-.05,2.12c-5.74,2.08-1.15,7.19-3.55,10.42H433.53V613.3c0-2,.73-3.54-2-4.06a9.86,9.86,0,0,1-.83-2.29c-.53-4.48-4-7.09-9.38-7.09s-9.27,2.71-9.59,7.4v1.46a15.21,15.21,0,0,0-2.39,12.61l3.75.83v10.42A154.57,154.57,0,0,1,373,595H626.17a158.61,158.61,0,0,1-33.44,33ZM409,586.84V554.65c6.36,1.87,6.36,1.87,6.36,8v24.17Zm10.42,0V558.71c3,1,5.42,1.77,7.71,2.71.63,0,1.57,1.25,1.57,1.87v23.65Zm48.35-25.21V543.71c0-2.09,0-3.75-2.92-3.75H444.05v20.21c-7.71-.84-7.71-.84-7.71-7.61V501.82a5.41,5.41,0,0,1,1.88-4.16c10.42-5.11,21.36-9.9,32.19-14.8a18,18,0,0,1,2.4-.73v83.35c-4.17,1.36-4.59.94-4.59-3.75Zm3.12,10.42v15h-5.62V570.9Zm-15.31-8.34-5.11-1.35V546.62c10.42-1.66,10.42-1.66,10.42,8.55v9.17Zm4.79,23.34H455.2v-17.4c5.1,0,5.21,0,5.21,4.69ZM450,573.19v13.86h-5.52V567.46c6.25,0,6.46,0,6.46,5.63Zm-11-3v15.52a5.16,5.16,0,0,1,0,1.36h-5.42V563.81c6.35.84,6.35.84,6.35,6.26Zm81.16-7c0,5,0,5-5.63,4.69V544.54c0-3.23-.83-4.58-4.27-4.48H491V568.4l-10.84-.94v-64.8a4.92,4.92,0,0,1,3.55-5.53c11-4.58,21.88-9.58,32.71-14.37l4.59-1.67Zm2.92,9.69v14.06h-7V573.71Zm-25.74-4.06v-22.2h10.42v20.22c0,.62-1.35,1.66-2.08,1.66a49.6,49.6,0,0,1-7.4.21Zm4.9,5.62v12.5h-4.9v-12.5Zm4.69,0,4.27-.62v13.23h-4.27Zm-14.28,0v13.13h-5.94V573.92Zm-10.42-.83v13.86h-6.66v-14.8Zm77.21-90.33c1.35-.63,2.71-1,4.48-1.67a27.79,27.79,0,0,1,0,3.65V554c0,3.13-.94,4.79-4.59,4.69V544c0-2.4-.83-3.44-3.23-3.44H537.19v25.21l-9.48,1.67V500a4.8,4.8,0,0,1,3.44-5.32c9.38-3.75,19-7.91,28.65-11.87Zm-14.69-1.36c.93-15.73,1.87-30.73,2.71-45.73h.93c1.36,13.64,2.61,27.29,3.86,41.05a3.47,3.47,0,0,1-1.57,2.29,55.1,55.1,0,0,1-5.52,1.87ZM565.53,562v25.32h-6.46a190.63,190.63,0,0,1,0-20.84c.52-1.77,4.38-3.12,7.19-5Zm-23.44,2.5V546.62H553v12.71a3.1,3.1,0,0,1-2,2,35.83,35.83,0,0,1-8.23,2.71Zm2,4.07v18.86h-5a140.51,140.51,0,0,1,0-14.8c1-1.77,3.44-2.81,5.73-4.58Zm4.69,1.35c0-1.14,2.81-2.19,5.1-3.75v20.84h-5.31c.73-6,.42-11.77.94-17.61Zm-14.27,1.77v15.74h-6.26V572.25ZM570,562.46c0-.94,1.67-2.08,2.82-2.81a59.77,59.77,0,0,1,6-2.61v30.32h-8.54c.31-9,.2-17.19.41-25.42Zm12.71,24.9V559.23c0-5.73,0-5.73,6.26-8.23v35.84Zm12.09,0V561c6.88,5.52,8.13,11,5.94,25.94Zm11,0V573.19c5.53,2.19,6.15,4.06,4.8,13.75Zm9.8,0v-7.08c2.5,2.29,6.77,2.29,5.62,7.08Zm18.75-3.85a79,79,0,0,1-38.55-34.28H650Zm13.13-41.68c-17.5,0-34.9,0-52.09.52a15,15,0,0,0-6.26,1.88c-5.93,3.12-11.66,6.56-18.33,10.42V471.3l-12.09,4.37c-.73-7.29-1.46-14.06-2.08-20.83-1.67-17.72-3.44-35.53-5-53.35,0-1.77-2.4-4.27.62-5.52a19.8,19.8,0,0,1,8.44-1.77,16,16,0,0,1,6.77,3.12,16.87,16.87,0,0,0,23.41-4.66c.12-.18.24-.36.35-.55a9.16,9.16,0,0,0,1.46-4.48,5,5,0,0,0-2-3.75c-.73-.52-2.5,0-3.65.94s-1.15,1-1.77,1.56a10.41,10.41,0,0,1-14.73.28,3.57,3.57,0,0,1-.27-.28,20.86,20.86,0,0,0-17.82-5.93,12.19,12.19,0,0,0-10.42,17.29,13.34,13.34,0,0,1,0,5.83c-1.46,25.63-3,51.26-4.48,77,0,2.29-.83,3.65-3.12,4.27a79.47,79.47,0,0,0-8.23,3.13V471.3l-47,19.48V471.92l-4.07,1.67L434.88,491a7.81,7.81,0,0,0-5.62,8.33V556a10.2,10.2,0,0,1-2.92,0l-18.55-9.38a10.4,10.4,0,0,0-4.68-.73c-2.09,0-3.13-.52-3.55-2.7Q390.35,492.09,381,441.08a18.18,18.18,0,0,0-.94-5.31,58.75,58.75,0,0,0,14,6.67,4.09,4.09,0,0,0,2.4.73c4.69,0,7.4-7.4,8.12-15.94,3.23-.73,5.42-2.19,5.42-3.76s-2.19-3.12-5.42-3.85c-.52-8.86-3.33-16.88-8.12-16.88a4.43,4.43,0,0,0-2.5.73,55.17,55.17,0,0,0-17.51,12.71,59.8,59.8,0,0,0-1.35-6h-5.42l2.4-3.75a154.4,154.4,0,0,1,137.32-63.87A156.91,156.91,0,0,1,655.24,473.07a160.75,160.75,0,0,1-2.09,65,4.05,4.05,0,0,1-4.28,3.83,4.25,4.25,0,0,1-.61-.08ZM399.67,419.1a17.16,17.16,0,0,0-8.44,1.87c0-9.37,3.23-15.31,5.21-15.31s4.48,5.21,5.1,13.54Zm1.87,8.54c-.83,7.82-3.23,12.61-5.1,12.61s-4.59-5.52-5.11-14.27a18.21,18.21,0,0,0,8.34,1.77Z"/><path class="cls-1" d="M446.55,631.54v3.85H433v-3.85Z"/><path class="cls-1" d="M472.7,631.54v3.85H459.47v-3.85Z"/><path class="cls-1" d="M499.06,631.54v3.85H485.83v-3.85Z"/><path class="cls-1" d="M554.59,641v3.85H541.36V641Z"/><path class="cls-1" d="M459.47,640.91v3.86H446.24v-3.86Z"/><path class="cls-1" d="M470,644.77V641h13.86v3.75Z"/><path class="cls-1" d="M494,644.77V641h13.85v3.75Z"/><path class="cls-3" d="M360.6,261.78v4.89a9.58,9.58,0,0,1,11.77,9.07,8.65,8.65,0,0,1-6.4,10.42,8.8,8.8,0,0,1-4,0v5h19v4.37h-1.45v4.9h6.25v-4.9h-.84v-4.69h12v-5.73h-5.52v1.05h-7.19v-6.67h-3.23v7.19h-7.29a15.53,15.53,0,0,0-2.24-21.84c-.29-.23-.58-.46-.88-.67a13.34,13.34,0,0,0-9.69-2.39"/><path class="cls-3" d="M501.77,256.57v4.48h5.42v4.27h-5.42v7H497.5v-7h-5.42v-4.17h5.42v-4.58a10.42,10.42,0,0,1-3.65-19.8,16.16,16.16,0,0,1-4.58-4.37l3.23-2.61a8.75,8.75,0,0,0,12.33,1,8.59,8.59,0,0,0,1-1l3,3.13a20,20,0,0,1-4.28,3.43,10.64,10.64,0,0,1-2.81,20"/><path class="cls-3" d="M634.19,282.3a8,8,0,0,1-2.29,0,8,8,0,0,1-2.19,0Z"/><path class="cls-3" d="M746.61,381.17a16.81,16.81,0,0,1-4.9,2.92c-10.41,1.15-10.41-10.42-12.71-13a3.22,3.22,0,0,0-4.54-.46,3.33,3.33,0,0,0-.46.46l-5,4v11.15h-4.17V355.86h-2.18v-4.38h8.43v4.38H719v13.65l5.63-3.55a6.14,6.14,0,0,1,8,3.32.92.92,0,0,1,.09.23c3,6,4.59,15.52,11.57,8.54Z"/><path class="cls-4" d="M706.92,642.89a2.68,2.68,0,0,1-2-.62,3.49,3.49,0,0,0,2,.62"/><path class="cls-3" d="M738.48,639.14a3.75,3.75,0,1,1-5.52-3.23,15.63,15.63,0,0,0-2.19-14.69,12.29,12.29,0,0,0-12.39-5.73A14.68,14.68,0,0,0,708,628.1a14,14,0,0,0,0,7.5,3.75,3.75,0,0,1-.94,7.29,3.49,3.49,0,0,1-2-.62,3.75,3.75,0,0,1-1.56-3.13,3.32,3.32,0,0,1,0-1.77,27.27,27.27,0,0,1-.84-9.17A18.76,18.76,0,0,1,721.19,611a19.39,19.39,0,0,1,16.67,20.84v5.21a3.6,3.6,0,0,1,.83,2.29"/><path class="cls-3" d="M736.09,492.65a3.85,3.85,0,0,1,3.85-3.75,3.76,3.76,0,0,1,3.65,3.75,3.53,3.53,0,0,1-2,3.23,15.64,15.64,0,0,0,2.29,14.69,12.3,12.3,0,0,0,12.4,5.74,14.9,14.9,0,0,0,10.42-12.61,16.66,16.66,0,0,0,0-7.5,3.65,3.65,0,0,1-2.81-3.55,3.74,3.74,0,0,1,3.75-3.75h0a3.29,3.29,0,0,1,2,.63,3.65,3.65,0,0,1,1.66,3.12,4.84,4.84,0,0,1,0,1.78,26.93,26.93,0,0,1,.73,9.16,18.65,18.65,0,0,1-18.44,17.2A19.28,19.28,0,0,1,736.92,500v-5.21a3.64,3.64,0,0,1-.83-2.29"/><path class="cls-5" d="M305.27,486.51l6.67,4.89-4,1.67-3-1.87Zm7,9.37-3.34-2.18,15.94-7.09v4.79l-8.33,3.65,1.35.94Zm12.18,5.53L305,500.89v-4.48h19.48Z"/><path class="cls-5" d="M310.9,483.17c-3.44,0-5-2.81-4.58-7.08h3.12a2,2,0,0,0,1.76,2.18h.12l9.79,1.25a2,2,0,0,0,2.29-1.62v-.05h3.13c-.73,4.27-3,6.15-6.77,5.73Zm.94-9.48a2,2,0,0,0-2.28,1.64s0,.09,0,.13h-3.23c.62-4.37,2.71-6.35,6.46-5.93l8.85,1.14c3.75,0,5.42,2.92,5,7.29h-3.12a2,2,0,0,0-1.76-2.17h-.12Z"/><path class="cls-5" d="M328.82,459.21l-10.42,2.5-7.29-1.56,10.42-2.5Zm-19,1,19,4.48-.94,4.07-19.06-4.38Zm2.29-9.9,19.07,4.48-.94,4.17-19.07-4.48Z"/><path class="cls-5" d="M321.94,443.79l1.78-5.31,3.12,1-1.77,5.31Zm-7.29-2.4,1.77-5.62,3.13,1-1.77,5.63Zm20.84.53-1.88,5.52-3.23-1,1.88-5.53Zm-20.84,0,18.65,6.14-1.46,4.27-18.54-6.14Z"/><path class="cls-5" d="M319.55,427.85l17.92,8-1.88,4.07L317.78,432Zm8.23,1a2.37,2.37,0,0,0,0-1.66,2.57,2.57,0,0,0-1.36-1.15,3.14,3.14,0,0,0-1.87,0,2,2,0,0,0-1.15,1.25l-.73,1.46-2.91-1.36v-1.35c1.87-4.17,4.48-5.52,7.6-4.06a6.8,6.8,0,0,1,2.5,1.77,2.65,2.65,0,0,1,0,2.39,3.88,3.88,0,0,1,4.8-.73l3.85,1.88h1.77l-1,4.69h-1.35l-4.07-1.88a2.35,2.35,0,0,0-3.12.84l-.63,1.45-3-1.35Z"/><path class="cls-5" d="M345.39,419.93c-2.09,3.86-4.9,4.9-8.23,3.13l-12.51-6.36,2.09-4.06,13.12,6.67a2,2,0,0,0,2.71-.73h0Zm-2.5-2.08a3,3,0,0,0,0-1.56,2.42,2.42,0,0,0-1.15-1.15l-12.92-6.67,2.08-4.17,12.61,6.36c3.34,1.77,4.17,4.58,2.19,8.65Z"/><path class="cls-5" d="M341.22,389.09l15.84,11.67-2.61,3.65L338.61,393Zm19.38,6.57-3,4.27-2.71-2,3.12-4.17Z"/><path class="cls-5" d="M352.89,374.19,371,383.05l-3.13,3.65-3.65-2-2.6,3-2.08-2.61,1.66-2.08-7-4,9.38,12.61L360.81,395,349,378.57Z"/><path class="cls-5" d="M368.72,357.94l1.25,8.13-3.85-1.36-.83-3.54Zm-1.66,11.57-.84-3.75,16.36,6.14L379,375.24l-8.54-3.34v1.56Zm4.79,12.6-13.54-14.06,3.23-3.13L375.18,379Z"/><path class="cls-5" d="M382.37,353.46a2.08,2.08,0,0,0-2.87-.65l0,0-2.09-2.61c3.44-2.6,6.36-2.4,8.55,0Zm.94,10.42a2.61,2.61,0,0,0,3.59.84l.16-.11,2.09,2.6a5.93,5.93,0,0,1-8.39.39,5.7,5.7,0,0,1-.89-1Zm8.75-5.31c2,2.5,1.25,5.1-2.08,8l-2.09-2.71c1.05-.94,1.36-1.88.73-2.61a2.82,2.82,0,0,0-2-.62h-7.5a6.24,6.24,0,0,1-4.48-1.56c-2.08-2.61-1.46-5.21,1.77-8l2.09,2.61a2.53,2.53,0,0,0-.84,1.35,2.92,2.92,0,0,0,.53,1.36,1.27,1.27,0,0,0,1.35,0h7.61a5.28,5.28,0,0,1,4.89,1.77Z"/><path class="cls-5" d="M400.4,357.84l-3.86,2.39-10.42-16.67,3.75-2.29Zm-6.57-19,3.86-2.5L408.11,353l-3.86,2.4-4.58-6.77-3.13,1.87-1.77-2.71,3.23-2Z"/><path class="cls-5" d="M405,331.89l8.75,17.51-3.85,1.87-8.13-17.5Zm13-6.46,8.65,17.51-3.75,1.87-8.75-17Zm-.72,22.2-8-8.23-3.85-7.71,1.14-.63,9.07,10.42-3.44-13.65,1.25-.62,3.86,7.91,1.56,11.26Z"/><path class="cls-5" d="M430.72,320.12l11.77,16.36-4.38,1.67-2.29-3.44-3.65,1.46-.62-3.34,2.4-.94-4.38-6.77,2.4,15.42-4.07,1.67-2.6-20Z"/><path class="cls-5" d="M437.35,317.71l4.33-1.5,6.43,18.5-4.33,1.5Z"/><path class="cls-5" d="M455.62,312.62l9.27,17.92-4.69,1-1.77-3.75-3.75.83-.11-3.33,2.5-.52-3.22-7.4V333l-4.38,1,.52-20.21Z"/><path class="cls-5" d="M470.62,329.39h-4.48l-1.88-18.85,4.48-.63Zm2.08-20,4.48-.52,2.4,19-4.48.52-1-8.44-3.75.52V317.2H474Z"/><path class="cls-5" d="M495.52,315.43H501v3.23h-5.52Zm0-7.81h5.83V311h-5.83Zm6.25,19.48h-6.25v-3.33h5.94Zm-7.29-19.38v19.49H490V307.72Z"/><path class="cls-5" d="M510.21,307.93h2.29c4.17,0,6.15,2.29,5.84,5.94l-.73,8.44c0,3.75-2.5,5.42-6.77,5.1h-2.3v-3.33h1.57a3.14,3.14,0,0,0,1.87,0,2,2,0,0,0,.73-1.25l.73-9.17a1.78,1.78,0,0,0-.52-1.56,2.51,2.51,0,0,0-1.77-.63h-1.56Zm-.73,0-1.56,19.9h-4.48l1.67-19.48Z"/><path class="cls-5" d="M525.84,329.5c-4.27-.94-6-3.34-5.32-7.09l2.61-13.75,4.48.83L524.9,324a1.87,1.87,0,0,0,1.26,2.33l.3.06Zm1.35-3a2.63,2.63,0,0,0,1.57,0,2,2,0,0,0,.72-1.46l2.71-14.48,4.59.93-2.61,13.86c-.73,3.75-3.23,5.21-7.6,4.48Z"/><path class="cls-5" d="M547.61,313c4.38,1,6,3.33,5.32,6.77v1.77l-5.32-1v-2a1.77,1.77,0,0,0-1-2.29,1.74,1.74,0,0,0-.45-.11Zm-3.85,16.77a1.76,1.76,0,0,0,2.23-1.13.9.9,0,0,0,.06-.22l.63-2.71,4.58,1.14v2c-.83,3.65-3.44,4.9-7.71,4Zm-4.48-13.23q1.25-4.9,7.5-3.75l-.73,3.12a1.77,1.77,0,0,0-2.15,1.28,1.16,1.16,0,0,0,0,.18l-2.39,9.9a1.86,1.86,0,0,0,1.34,2.29h0l-.73,3c-4.06-1-5.73-3.43-4.9-7Z"/><path class="cls-5" d="M566.47,319.29l-1.35,20.11-4.48-1.46.31-4.17-3.65-1.25,1.57-2.92,2.5.84,1-8-8,13.44-4.28-1.35L561,317.41Z"/><path class="cls-5" d="M584.08,326.89l-1.36,3-12.6-5.83,1.35-2.92Zm-10.42,0,4.06,1.77-6.46,14.17L567.2,341Z"/><path class="cls-5" d="M577.4,345.4l8.88-17.46,4.09,2.08-8.88,17.46Z"/><path class="cls-5" d="M590.85,336c1.77-3,4.59-3.54,8.44-1.46l-1.67,2.81a1.87,1.87,0,0,0-2.58.6,1.83,1.83,0,0,0-.13.24L590,346.69a1.88,1.88,0,0,0,.47,2.61l.15.1-1.56,2.81c-3.75-2.4-4.58-5.21-2.71-8.44Zm8.13,4.48a1.88,1.88,0,0,0-.47-2.61l-.16-.1,1.57-2.81c3.85,2.18,4.89,4.89,3,8.12l-4.48,7.82c-1.88,3.23-4.8,3.85-8.76,1.77l1.67-2.82a1.77,1.77,0,0,0,2.48-.39,1.67,1.67,0,0,0,.23-.44Z"/><path class="cls-5" d="M606.06,361.69l1.88-10.42,4-5.52-1.77,10.52Zm6.36-17.92-11.57,15.84-3.33-2.5L609,341.27Zm8.23,5.94-11.46,15.84-3.44-2.5,11.46-15.84Z"/><path class="cls-5" d="M629.19,367.73l4.07,3.76-2.3,2.39L627,370Zm5.42-5.62,4.27,4.06-2.29,2.4-4.27-4.07Zm-.52,0-13.55,13.75-3.33-3.12L631,358.46Z"/><path class="cls-5" d="M637.42,372c2.71-2.3,5.42-1.88,8.44,1.35l-2.5,2.08a1.67,1.67,0,0,0-2.32-.38,2,2,0,0,0-.39.38l-7.5,6.46a1.88,1.88,0,0,0-.17,2.65l.17.17-2.4,2.08c-2.7-3.44-2.6-6.35,0-8.86Zm6.25,6.87a1.87,1.87,0,0,0,.17-2.64,1.37,1.37,0,0,0-.17-.17l2.4-2.08c2.92,3.33,2.92,6.25,0,8.64l-6.77,5.84c-2.82,2.5-5.84,2.08-8.75-1.15l2.39-2.08a1.88,1.88,0,0,0,2.65.16l.17-.16Z"/><path class="cls-5" d="M640.55,399.3a5.64,5.64,0,0,1,.83-9l11.46-8,2.61,3.75-12,8.44a2,2,0,0,0-.69,2.71l.06.1Zm3-1.14a2.37,2.37,0,0,0,1.35.83,2,2,0,0,0,1.57,0l12-8.65,2.71,3.75-11.57,8.13c-3.12,2.19-6,1.46-8.65-2.08Z"/><path class="cls-5" d="M652.63,414.72l6.15-9.27,5.84-3.44-6.15,9.27Zm13-14-16.88,10.42-2.08-3.65,16.87-9.79Zm5.21,8.86-17,9.9-2.08-3.65,16.88-9.9Z"/><path class="cls-5" d="M675.14,418.16l.94,2.08c1.77,3.86.93,6.57-2.4,8L666,431.81c-3.33,1.56-5.94,0-7.71-3.44l-.94-2,3-1.46.63,1.46a2.89,2.89,0,0,0,1.14,1.46,1.77,1.77,0,0,0,1.46,0l8.34-3.85c.62,0,1-.63,1.14-1.15a3.17,3.17,0,0,0,0-1.88l-.41-1.45Zm0-.62-17.82,8.12-2.19-4.06,17.51-8.13Z"/><path class="cls-5" d="M683.47,438.27,667,450l-1.67-4.37,3.44-2.4-1.46-3.65,3.34-.52.94,2.4,6.77-4.38-15.53,2.4-1.56-4.17,20-2.5Z"/><path class="cls-5" d="M688.79,456.71l-3.23.83-3.65-13.44,3.13-.83Zm-6.36-7.92,1.15,4.38-15,4.17-1.14-4.48Z"/><path class="cls-5" d="M670.12,463.53l19.08-4.42,1,4.47L671.16,468Z"/><path class="cls-5" d="M686.29,468.38c3.43,0,5.52,1.56,6.14,5.83h-3.12a1.88,1.88,0,0,0-2.12-1.59l-.17,0-9.8,1.15a2,2,0,0,0-1.88,2.07.37.37,0,0,0,0,.11h-3.13c0-4.37,1.36-6.77,5.21-7.18Zm1.35,9.17a1.77,1.77,0,0,0,1.82-1.72,1.48,1.48,0,0,0-.05-.47h3.23c0,4.48-1,6.88-4.79,7.29L679,483.8c-3.75,0-6-1.56-6.66-5.94h3.12a2.09,2.09,0,0,0,2.4,1.67Z"/><path class="cls-5" d="M675.56,496l9.79-5.21h6.87l-10.41,5.1Zm17.92-5.94-19.59.52V486.3h19.48Zm0,10.42H674V496.2h19.49Z"/><path class="cls-5" d="M306.21,561.52,321.42,556l.63,2-7.5,2.71,10.21,4.9,1,2.7-8.44-4.16L310.69,574l-.94-2.7,5.73-8.13-3.33-1.56-5.21,1.87Z"/><path class="cls-5" d="M311.11,575.8l14.69-6.67.83,2-8,12.92,11.57-5.21.83,1.87-14.69,6.57-.84-2,8-12.92-11.57,5.21Z"/><path class="cls-5" d="M324.65,586.53a8.36,8.36,0,0,1,6.57-.84,7.3,7.3,0,0,1,4.48,4,8.17,8.17,0,0,1,.83,4.07,7.25,7.25,0,0,1-1.46,3.75,10.53,10.53,0,0,1-3.54,2.81,11.08,11.08,0,0,1-4.27,1,8.39,8.39,0,0,1-4-1.25,9.58,9.58,0,0,1-2.61-3.12,7.17,7.17,0,0,1-.73-4.07,6.69,6.69,0,0,1,1.46-3.75A7.88,7.88,0,0,1,324.65,586.53Zm.94,2a6.15,6.15,0,0,0-3.44,3.44,5.13,5.13,0,0,0,0,4.27,5.77,5.77,0,0,0,3.23,2.81,7.42,7.42,0,0,0,5-.73,10.34,10.34,0,0,0,2.82-2.19,5.17,5.17,0,0,0,1.14-2.71,5.6,5.6,0,0,0-.52-2.91,5.51,5.51,0,0,0-3.12-2.82,6.89,6.89,0,0,0-5.11.63Z"/><path class="cls-5" d="M327.57,608.3l11.67-12.19,1.15,1.88-7.61,7.71-2.4,2.29,2.92-.94,10.42-3.23,1.35,2.19-5.62,6.25c-1.46,1.56-2.82,2.92-4.17,4.17l3.44-1.25,10.42-3.44,1.14,1.88-15.94,4.89-1.14-1.77,8.64-9.38,1.25-1.45-1.87.52-12.4,3.75Z"/><path class="cls-5" d="M338,623.41l12.61-10,1.25,1.77-11.15,8.75,4.89,6.25-1.45,1.15Z"/><path class="cls-5" d="M345.91,633.2,358,622.68l7.71,8.75-1.46,1.25L358,625.49l-3.75,3.23,5.84,6.78-1.36,1.25L352.89,630l-4.17,3.65,6.46,7.4-1.35,1.25Z"/><path class="cls-5" d="M355.91,644.35l11.25-11.67,4,3.86a14,14,0,0,1,1.88,2.18,5.67,5.67,0,0,1,.93,2.51,6.88,6.88,0,0,1-.52,3.23,12.36,12.36,0,0,1-2.19,3.23,21.74,21.74,0,0,1-2.6,2.08l-2.4.94h-2.08a6.79,6.79,0,0,1-4-2.4Zm2.92,0,2.5,2.4a5.73,5.73,0,0,0,2,1.46,3,3,0,0,0,1.56,0,5.1,5.1,0,0,0,2.29-.63,9.8,9.8,0,0,0,2.5-2,8.75,8.75,0,0,0,2.09-3.33,4.63,4.63,0,0,0,0-2.71,11.38,11.38,0,0,0-1.78-2.19l-2.39-2.29Z"/><path class="cls-5" d="M377.48,655.19l1.14-1.57,5.42,4.17-3.65,4.69a10.59,10.59,0,0,1-3.64,0,14.76,14.76,0,0,1-3.13-1.56,10.36,10.36,0,0,1-3.12-3.86,6.47,6.47,0,0,1,0-4.17,8.8,8.8,0,0,1,1.77-3.95,11.61,11.61,0,0,1,3.54-2.92,6.28,6.28,0,0,1,4.06-.63,9,9,0,0,1,4,1.77,8,8,0,0,1,2.19,2.4,4.7,4.7,0,0,1,.73,2.6,7.62,7.62,0,0,1-.63,2.82l-1.87-.73a6.82,6.82,0,0,0,.52-2.09,4.31,4.31,0,0,0-.73-1.35,6.06,6.06,0,0,0-1.56-1.67,8.07,8.07,0,0,0-2.19-1.25,4.86,4.86,0,0,0-2.08,0,3.36,3.36,0,0,0-1.78.63,9.11,9.11,0,0,0-4.16,5.52,5.94,5.94,0,0,0,0,3,6.92,6.92,0,0,0,2,2.29,5.58,5.58,0,0,0,2.5,1.25,4.67,4.67,0,0,0,2.29,0l1.77-2.39Z"/><path class="cls-5" d="M381.64,666.13,391,653l9.48,6.77-1.14,1.56-7.71-5.52-2.92,4.06L396,665l-1.14,1.56-7.19-5.21-3.23,4.48,8,5.73-1,1.57Z"/><path class="cls-5" d="M409.88,668.52l1.14-1.14,1.78,2a24.84,24.84,0,0,1,1-2.5l1.35.72a15.69,15.69,0,0,1-1.46,2.3h2.82v1.66l-2.71-.73a4.73,4.73,0,0,0,.73,2.71H413v-2.81l-2.29,1.46-1.25-.52,2.5-1Z"/><path class="cls-5" d="M424.05,689.57l6-15,2,.83-5.31,13.23,7.39,2.92-.73,1.77Z"/><path class="cls-5" d="M435.92,694.05l4.28-15.53,11.14,3.13-.41,1.77-9.17-2.5-1.35,4.79,8.54,2.4-.52,1.77-8.55-2.4-1.45,5.32,9.48,2.6-.52,1.88Z"/><path class="cls-5" d="M448.64,697.59l9.69-14.27,2.29.52L463.33,701h-2.4l-.73-5.21-6.35-2.08L451,698.11Zm5.93-5.42,5.42,1.25-.62-4.69v-3.54A19.46,19.46,0,0,1,457.8,688Z"/><path class="cls-5" d="M464.89,701.45l1.87-16.05,5.53.73a12,12,0,0,1,2.81,0,5.66,5.66,0,0,1,2.29,1.35,7.56,7.56,0,0,1,1.56,3,11.31,11.31,0,0,1,0,3.85,12.82,12.82,0,0,1-.73,3.23,11.23,11.23,0,0,1-1.35,2.19A8.56,8.56,0,0,1,475.2,701a5.45,5.45,0,0,1-2,.62h-2.6Zm2.4-1.67h5.93a2.71,2.71,0,0,0,1.46-.63,5.61,5.61,0,0,0,1.46-2,7.49,7.49,0,0,0,.73-3,7.81,7.81,0,0,0,0-4,4.2,4.2,0,0,0-1.77-2,9.07,9.07,0,0,0-2.71-.73h-3.33Z"/><path class="cls-5" d="M481,703.22l1.25-16.05,11.56.94-.1,1.87-9.48-.72-.31,4.89,8.85.73-.21,1.88-8.85-.73-.42,5.52,9.9.73-.21,1.87Z"/><path class="cls-5" d="M496,704.36l-.52-16.15h7.08a7.84,7.84,0,0,1,3.34,0,3.05,3.05,0,0,1,1.77,1.46,5.15,5.15,0,0,1,.83,2.4,4.18,4.18,0,0,1-1,2.92,5.33,5.33,0,0,1-3.33,1.56l1.25.83a9.07,9.07,0,0,1,1.87,2.09l2.92,4.27h-2.6l-2.3-3.34-1.56-2.18a4,4,0,0,0-1.15-.94h-4.68v7.19Zm1.88-9.06h4.58a5.76,5.76,0,0,0,2.19,0,2.45,2.45,0,0,0,1.25-.94,2.62,2.62,0,0,0,0-1.87,2.71,2.71,0,0,0,0-2.09,3.25,3.25,0,0,0-2.61-.62h-5.1Z"/><path class="cls-5" d="M511.15,698.53h2a3.92,3.92,0,0,0,.83,1.87,3.21,3.21,0,0,0,1.67,1.15,5.28,5.28,0,0,0,2.5,0,6.71,6.71,0,0,0,2.19,0,2.34,2.34,0,0,0,1.25-1.15,2.08,2.08,0,0,0,0-1.35,1.77,1.77,0,0,0-.63-1.25,2.46,2.46,0,0,0-1.46-.83,24.34,24.34,0,0,0-2.91-.63,17,17,0,0,1-3.23-.73,4.82,4.82,0,0,1-1.78-1.35,4.61,4.61,0,0,1-.72-2,3.49,3.49,0,0,1,0-2.3,4.38,4.38,0,0,1,1.87-1.77,8.73,8.73,0,0,1,2.92-.83,8,8,0,0,1,3.23,0,4.06,4.06,0,0,1,2.19,1.46,5.26,5.26,0,0,1,.93,2.5h-2a3.2,3.2,0,0,0-1.25-2.19,4.85,4.85,0,0,0-2.91-.62,4.4,4.4,0,0,0-2.71.93,1.89,1.89,0,0,0-.73,1.78,1.45,1.45,0,0,0,.73,1.35,6.14,6.14,0,0,0,3.23.94l3.64.73a5.63,5.63,0,0,1,2.19,1.46A4.38,4.38,0,0,1,523,698a3.86,3.86,0,0,1-.53,2.39,5.09,5.09,0,0,1-2,2,7.23,7.23,0,0,1-3,.84,10.74,10.74,0,0,1-3.75,0,5.68,5.68,0,0,1-2.39-1.77,5.58,5.58,0,0,1-.21-2.92Z"/><path class="cls-5" d="M527.3,702.38l-3-15.83,2.18-.32,1.15,6.46,8.23-1.56-1.25-6.46,2.08-.42,3,15.84-2.19.42-1.36-7.5L528,694.57l1.35,7.4Z"/><path class="cls-5" d="M539.87,683.61l2.13-.49,3.61,15.63-2.14.49Z"/><path class="cls-5" d="M549.28,697.9l-4.38-15.83,5.94-1.67a14.28,14.28,0,0,1,2.4-.52,4.57,4.57,0,0,1,2.08,0A4.48,4.48,0,0,1,557,681a4.62,4.62,0,0,1,1,2,5.44,5.44,0,0,1,0,3.65,6.45,6.45,0,0,1-4.17,2.71l-4,1,1.66,6.36Zm0-8.64,4-1.15a3.73,3.73,0,0,0,2.6-1.56,2.8,2.8,0,0,0,0-2.3,2.85,2.85,0,0,0-.93-1.45,2.49,2.49,0,0,0-1.57-.63,6.57,6.57,0,0,0-2,0l-4,1Z"/><path class="cls-5" d="M569.28,677.48v-1.56a10.25,10.25,0,0,1,2.71,0,4.65,4.65,0,0,0-1.14-2.5l1.46-.63a13.58,13.58,0,0,1,.73,2.71,19.47,19.47,0,0,1,2.08-2l1,1.25a12,12,0,0,1-2.4,1.57,13.27,13.27,0,0,1,2.5,1.25l-.83,1.35a17,17,0,0,1-2.29-1.67,24.5,24.5,0,0,1,0,2.71h-1.56a22.78,22.78,0,0,1,.93-2.5Z"/><path class="cls-5" d="M595.23,661.23l1.87-1.15,4.69,8.13a8.82,8.82,0,0,1,1.46,3.54,4.47,4.47,0,0,1-.52,3,6.93,6.93,0,0,1-2.81,2.61,6.41,6.41,0,0,1-3.55,1.25,4.84,4.84,0,0,1-2.91-.94,12.22,12.22,0,0,1-2.61-3.12l-4.69-8,1.88-1,4.69,7.92a9.35,9.35,0,0,0,1.87,2.5,2.8,2.8,0,0,0,2,.62,5,5,0,0,0,2.29-.62,4.44,4.44,0,0,0,2.3-2.6,6,6,0,0,0-1.46-3.76Z"/><path class="cls-5" d="M608.35,672.69l-9.37-13,1.77-1.36,14.17,5.32-7.4-10.21,1.67-1.25,9.48,13.12-1.77,1.25-14.28-5.31,7.4,10.21Z"/><path class="cls-5" d="M621.79,662.9l-10-12.61,1.67-1.35,10,12.6Z"/><path class="cls-5" d="M629.92,656.33l-15.21-8.12,1.67-1.46,10.42,6,2.39,1.46a18.43,18.43,0,0,1-1-2.61l-4.06-11.25,1.66-1.35,5.84,16.25Z"/><path class="cls-5" d="M637.74,649.35l-11-11.77,8.44-7.92,1.35,1.36-7,6.45,3.44,3.65,6.46-6,1.25,1.35-6.46,6.05,3.75,4.06,7.19-6.77,1.36,1.35Z"/><path class="cls-5" d="M648.36,638.83l-12.08-10.42L641,623a8.27,8.27,0,0,1,2.51-2.08,3.46,3.46,0,0,1,2.29,0,5.38,5.38,0,0,1,2.29,1.14,4.2,4.2,0,0,1,1.46,2.71,5.74,5.74,0,0,1-1.15,3.55,4.47,4.47,0,0,1,1.46,0,7.71,7.71,0,0,1,2.71,0l5.21.73L656,630h-6.88a3,3,0,0,0-1.46,0,2.09,2.09,0,0,0-.93,0,3.05,3.05,0,0,0-.84.84l-1.67,1.87,5.42,4.69Zm-5.31-7.61,3-3.43a7.42,7.42,0,0,0,1.25-1.88,2.59,2.59,0,0,0-2.71-3.44,3.85,3.85,0,0,0-2.29,1.46L639,627.79Z"/><path class="cls-5" d="M654.3,624l.94-1.77a4.29,4.29,0,0,0,2.08.63,4,4,0,0,0,2-.63,6.51,6.51,0,0,0,1.77-1.66,4.77,4.77,0,0,0,.94-2,2.29,2.29,0,0,0,0-1.67,2.07,2.07,0,0,0-.83-1.25,2.84,2.84,0,0,0-1.36,0l-1.56.62L656,618.2a16.76,16.76,0,0,1-2.61,2,4.92,4.92,0,0,1-2.29,0,3.55,3.55,0,0,1-2-.73,3.91,3.91,0,0,1-1.46-1.87,4.46,4.46,0,0,1,0-2.61,8.06,8.06,0,0,1,1.25-2.71,9,9,0,0,1,2.3-2.19,5,5,0,0,1,2.6-.73,4.73,4.73,0,0,1,2.6.84L655.24,612a3.11,3.11,0,0,0-2.5,0,3.75,3.75,0,0,0-2.19,1.77,4.48,4.48,0,0,0-1.15,2.71,2.35,2.35,0,0,0,.94,1.67,1.57,1.57,0,0,0,1.46,0,8.69,8.69,0,0,0,2.81-2,21.56,21.56,0,0,1,2.92-2.3,5.26,5.26,0,0,1,2.5-.73,4.63,4.63,0,0,1,2.29.73,4,4,0,0,1,1.57,2.09,4.81,4.81,0,0,1,0,2.71,7.48,7.48,0,0,1-1.36,2.91,10.57,10.57,0,0,1-2.6,2.61,5.73,5.73,0,0,1-2.92.73,5.33,5.33,0,0,1-2.71-.84Z"/><path class="cls-5" d="M666.59,615.7l-10.41-14,1.25-2,17.08,3.33-1.35,2-5-1-3.75,5.63,3.12,4.16Zm-3-7.5,3-4.59-4.68-1-3.44-.83a26.06,26.06,0,0,1,2.19,2.39Z"/><path class="cls-5" d="M675.66,601.63l-14.48-7.18,1-1.88,12.61,6.36,3.54-7.09,1.77.83Z"/><path class="cls-5" d="M681.39,590.07l-14.69-6.46.83-2,14.8,6.56Z"/><path class="cls-5" d="M685.45,581l-13.12-5.42-2,5-1.78-.73,4.8-11.77,1.77.62-2,4.9L686.29,579Z"/><path class="cls-5" d="M690.56,567.46l-6.46-2.19-10.42,3,.83-2.5,5.63-1.45,3-.73-2.08-2.5L677.22,557l.84-2.39,6.77,9.06,6.46,2.08Z"/><path class="cls-6" d="M749.42,543.71a4.07,4.07,0,0,1,4.07-4.07h.1c10.42-1.35,20.84-3,32.19-4.58V472.55l-31.25-5.73c-2.19,0-3.34-1.05-3.54-3.34a240.21,240.21,0,0,0-13.76-53.13,3.45,3.45,0,0,1,1.07-4.75l.08-.05c3.54-2.6,6.88-5.52,10.42-8.33s9.38-7.71,14.06-11.77l-14.69-25-1.14-2L731.4,332.1l-7.09,2.71-9,3.44-2,.83-5.93,2.3L703.37,343a4.48,4.48,0,0,1-6.2-1.3l-.15-.26a210.76,210.76,0,0,0-16-18.75c-6.56-6.78-13.75-12.92-20.83-19.17-1.78-1.46-2.3-2.71-1.15-4.69a26.43,26.43,0,0,0,1.87-4.38c3.23-8.13,6.57-16.25,10.42-24.48l-53.34-32.82c-7.29,8.44-14.38,16.56-20.84,24.79a3.85,3.85,0,0,1-5.1,1.36,232.11,232.11,0,0,0-52.1-14.07c-2.91,0-3.75-1.66-4.06-4.27-1.56-10.42-3.23-20.84-4.9-30.73H468.43c-1.67,10.42-3.44,20.83-4.9,30.52,0,3.23-1.77,4.17-4.79,5-15.31,3.76-30.63,7.71-45.84,12.09-3.75,1-5.73,1.15-8.23-2.19-6.15-8-12.71-15.21-19.17-23.54L331.84,267.4l.63,1.67,5.62,14.79L340.7,291c.94,2.08,1.67,4.27,2.6,6.35s.84,3.23-1.14,4.69a207.91,207.91,0,0,0-38.55,39.18,4.18,4.18,0,0,1-5.63,1.74l-.31-.18c-8.44-3.75-17-7.29-25.63-10.42-1.56-.62-3.13-2.08-4.69.63-7.08,12-14.48,24.69-21.88,37.4-2.6,4.69-5.42,9.38-8.23,14.27,8.34,6.78,16.46,13.55,24.69,20.11,2.19,1.67,2.29,3,1.57,5.63-4.17,13.65-7.92,27.29-11.78,41a4.09,4.09,0,0,0,0,1.56c-1.14,4.17-3.54,10.42-6.87,10.42l-7.09,1.14-5.83,1.05-17.71,3.33v62.51c10.93,1.67,21.46,3.44,32,4.9,2.71,0,3.75,1.25,4.17,4.06a245.3,245.3,0,0,0,15,54.08,3.43,3.43,0,0,1-1.33,4.67h0l-1.46,1.15c-5.73,4.69-11.46,9.48-17.19,14.07L241,618l-2.19,1.77,31.26,54.08,7.71-2.19,15.84-6.15,6.77-2.71a4.38,4.38,0,0,1,5.73,1.46c10.42,10.42,20.84,21.46,32,31.26a5.61,5.61,0,0,1,1.77,7.6c-3.95,10.21-7.91,20.63-12.08,31l53.13,31.26c7.71-9.17,15.22-17.82,22.4-26.68a4.92,4.92,0,0,1,6.05-1.77c14.48,4.38,29.07,8.65,43.76,12.51,9,2.29,9.06,1.87,10.41,11s2.61,16.77,4,25.21H530c1.66-10.42,3.54-20.11,4.89-30a5,5,0,0,1,4.9-5,223.66,223.66,0,0,0,49.49-12.61,4.48,4.48,0,0,1,6.12,1.63c.05.08.09.16.13.24,6.56,8.76,13.34,17.51,20.21,26.36l54.49-29.48c-.52-1.56-.94-3-1.46-4.38-3.44-9.79-6.77-19.58-10.42-29.27a4.38,4.38,0,0,1,1.46-5.73c10.42-10.42,21.88-20.84,32.4-31.26,5.84-5.94,5.53-6.25,13.24-3.33l26.15,10.42C742,655,752.45,637,762.86,618.83c-8.23-6.67-16-13.24-24.17-19.49a5.21,5.21,0,0,1-1.87-7.12l.1-.17a229.27,229.27,0,0,0,13.13-47.61M248.7,511.1h-8.85s-14.28-2.5-10.42-20.84a20.83,20.83,0,0,0,12.81,10.42c4.9.83,10.94-1.46,17.82-10.42C259.64,489.84,262.25,508.18,248.7,511.1ZM632,258.55a13,13,0,0,1,2.61,25.73v1.88H640V291h-5.42v7.29h-4.69V291H624.5v-4.79h5.42v-1.77a13,13,0,0,1,2.71-25.74ZM489.27,232.29l3.23-2.71a8.74,8.74,0,0,0,12.33,1,7.87,7.87,0,0,0,1-1l3,3a16.92,16.92,0,0,1-4.28,3.44,10.51,10.51,0,1,1-2.81,20.84v4.48h5.42v4h-5.42v7H497.5v-7h-5.42v-4.17h5.42v-4.58a10.42,10.42,0,0,1-3.65-19.8A15.17,15.17,0,0,1,489.27,232.29ZM360.6,261.78a13.33,13.33,0,0,1,9.69,2.39,17.73,17.73,0,0,1,6.25,9.17,17.12,17.12,0,0,1-3.23,13.34h7.6v-7.19h3.75v6.67h6.67v-1.05h4.9v5.73H384.46v4.59h.83v4.9H379v-4.9h1.87v-4.38H362.16v-4.89a8.65,8.65,0,0,0,10.42-6.41,8.76,8.76,0,0,0,0-4,1.5,1.5,0,0,0,0-.73,9.55,9.55,0,0,0-11.67-8.75ZM262.25,372.11a10.41,10.41,0,0,1,17-8.33l3.75-3.55-1.88-2,9.17-1.35-3.12,8.65-2-1.88-3.44,3.44a10.43,10.43,0,1,1-19.59,5Zm40.42,265.57H289.54a10.42,10.42,0,0,1-5.73,6.67h-1.25v10.42h-4.48V644.35a10.42,10.42,0,0,1-8.23-7.4H259.43v-4.79h10.42a9.07,9.07,0,0,1,.83-2.19l-7.18-7.19,3.43-3.23,7,7.09.94-.63a11.84,11.84,0,0,1,3.23-1v-9.58h4.48v9.89a11,11,0,0,1,4,2.09l7.5-7.82,3.34,3.44-8.13,8a10.16,10.16,0,0,1,0,1.56h13.44ZM500,718.74c-121.18,0-219.42-98.24-219.42-219.42S378.82,279.9,500,279.9s219.42,98.24,219.42,219.42h0C719.42,620.5,621.18,718.74,500,718.74Zm238.17-87.1v5.21a3.62,3.62,0,0,1,.83,2.29,3.75,3.75,0,1,1-5.52-3.23,15.52,15.52,0,0,0-2.18-14.69,12.21,12.21,0,0,0-12.4-5.73,14.58,14.58,0,0,0-10.42,12.61,14,14,0,0,0,0,7.5,3.75,3.75,0,0,1-.94,7.29,3.49,3.49,0,0,1-2-.62,3.87,3.87,0,0,1-1.56-3.13,3.32,3.32,0,0,1,0-1.77,27.27,27.27,0,0,1-.84-9.17,18.86,18.86,0,0,1,18.55-17.29,19.48,19.48,0,0,1,16.46,20.73ZM729,371.17a3.22,3.22,0,0,0-4.54-.45,3.26,3.26,0,0,0-.46.45l-1.35,1.15L719,375.24v11.14h-4.17V356.17h-2v-4.48h8.44v4.48h-2.08v13.34l1.77-1.15,3.86-2.4a6.14,6.14,0,0,1,8,3.32l.09.23c3,5.93,4.59,15.52,11.57,8.54l2.29,3.23a17,17,0,0,1-4.9,2.92c-10.42,1-10.73-10.53-12.92-13.13ZM739.94,489a3.7,3.7,0,0,1,1.67,7,15.93,15.93,0,0,0,2.29,14.69,12.31,12.31,0,0,0,12.4,5.73,14.89,14.89,0,0,0,10.42-12.61,16.66,16.66,0,0,0,0-7.5,3.75,3.75,0,0,1,.94-7.29,3.21,3.21,0,0,1,2,.62,3.54,3.54,0,0,1,1.66,3,5.4,5.4,0,0,1,0,1.88,27,27,0,0,1,.73,9.17,18.54,18.54,0,0,1-18.44,17.19,19.28,19.28,0,0,1-16.67-20.84v-5.21a3.59,3.59,0,0,1-.73-2.39,3.76,3.76,0,0,1,3.75-3.55ZM641.38,271.47a9.17,9.17,0,1,1-8.14-8.14A9.16,9.16,0,0,1,641.38,271.47Z"/><path class="cls-6" d="M396.44,290.84v-5.73h-5.11v1.05h-7.08v-6.67h-3.34v7.29h-7.29a17.37,17.37,0,0,0,3.23-13.44,17.73,17.73,0,0,0-6.25-9.17,13.33,13.33,0,0,0-9.69-2.39v4.89a9.7,9.7,0,0,1,11.31,7.75,9.52,9.52,0,0,1,.15,1.32,8.65,8.65,0,0,1-6.4,10.42,8.8,8.8,0,0,1-4,0v5h19v4.37h-1.45v4.9h6.25v-4.9h-.84v-4.69Z"/><path class="cls-6" d="M501.77,256.57a10.64,10.64,0,0,0,2.81-20,19.72,19.72,0,0,0,4.28-3.44l-2.92-3.33a8.76,8.76,0,0,1-12.34,1,9.44,9.44,0,0,1-1-1l-3.12,2.61a13.68,13.68,0,0,0,4.58,4.37,10.42,10.42,0,0,0,3.65,19.8v4.48h-5.52v4.27h5.52v7h4.17v-7h5.52v-4.17h-5.63Z"/><path class="cls-6" d="M737.65,637v-5.31A19.49,19.49,0,0,0,721,610.8a18.86,18.86,0,0,0-18.54,17.3,27,27,0,0,0,.83,9.17,3.32,3.32,0,0,0,0,1.77,3.74,3.74,0,0,0,1.56,3.12,3.43,3.43,0,0,0,2,.63,3.75,3.75,0,0,0,.94-7.29,14.28,14.28,0,0,1,0-7.51,14.57,14.57,0,0,1,10.42-12.6,12.19,12.19,0,0,1,12.4,5.73,15.52,15.52,0,0,1,2.18,14.69,3.72,3.72,0,1,0,5.53,3.23,3.16,3.16,0,0,0-.84-2.19"/><path class="cls-6" d="M744.32,377.94c-7,7-8.54-2.6-11.57-8.54a6.14,6.14,0,0,0-7.89-3.63l-.23.09-3.86,2.4L719,369.4V355.86h2.08v-4.48h-8.43v4.48h1.66v29.9h4.17V374.92l3.65-2.91,1.35-1.15a3.2,3.2,0,0,1,5,0c2.19,2.6,2.5,14.17,12.71,13a17,17,0,0,0,4.9-2.91Z"/><path class="cls-6" d="M770.89,494.53a5.84,5.84,0,0,0,0-1.77,3.66,3.66,0,0,0-1.67-3.13,3.19,3.19,0,0,0-2-.62,3.75,3.75,0,0,0-3.75,3.75h0a3.64,3.64,0,0,0,2.81,3.54,16.38,16.38,0,0,1,0,7.5,14.89,14.89,0,0,1-10.42,12.61,12.29,12.29,0,0,1-12.39-5.73,15.94,15.94,0,0,1-2.3-14.69,3.53,3.53,0,0,0,2-3.23,3.75,3.75,0,1,0-7.39,0,3.5,3.5,0,0,0,.72,2.29v5.21a19.39,19.39,0,0,0,16.67,20.84,18.76,18.76,0,0,0,18.45-17.3,27.26,27.26,0,0,0-.73-9.17"/><path class="cls-6" d="M770.89,494.53a5.84,5.84,0,0,0,0-1.77,3.66,3.66,0,0,0-1.67-3.13,3.19,3.19,0,0,0-2-.62,3.75,3.75,0,0,0-3.75,3.75h0a3.64,3.64,0,0,0,2.81,3.54,16.38,16.38,0,0,1,0,7.5,14.89,14.89,0,0,1-10.42,12.61,12.29,12.29,0,0,1-12.39-5.73,15.94,15.94,0,0,1-2.3-14.69,3.53,3.53,0,0,0,2-3.23,3.75,3.75,0,1,0-7.39,0,3.5,3.5,0,0,0,.72,2.29v5.21a19.39,19.39,0,0,0,16.67,20.84,18.76,18.76,0,0,0,18.45-17.3,27.26,27.26,0,0,0-.73-9.17"/><path class="cls-6" d="M714.83,356.17v29.9H719V374.92l3.65-2.91,1.35-1.15a3.2,3.2,0,0,1,5,0c2.19,2.6,2.5,14.17,12.71,13a17,17,0,0,0,4.9-2.91l-2.29-3.23c-7,7-8.54-2.61-11.57-8.55a6.14,6.14,0,0,0-7.89-3.63l-.23.09-3.86,2.4L719,369.19V355.65h2.08v-4.48h-8.43v4.48h1.66Z"/><path class="cls-6" d="M738.17,631.64A19.49,19.49,0,0,0,721.5,610.8,18.86,18.86,0,0,0,703,628.1a27,27,0,0,0,.83,9.17,3.54,3.54,0,0,0,0,1.77,3.74,3.74,0,0,0,1.56,3.12,3.43,3.43,0,0,0,2,.63,3.75,3.75,0,0,0,.94-7.29,14.28,14.28,0,0,1,0-7.51,14.57,14.57,0,0,1,10.42-12.6,12.19,12.19,0,0,1,12.4,5.73,15.52,15.52,0,0,1,2.18,14.69A3.72,3.72,0,1,0,738.8,639a3.16,3.16,0,0,0-.84-2.19v-5.31"/><path class="cls-6" d="M510.52,245.94a10.43,10.43,0,0,0-5.94-9.59,20,20,0,0,0,4.28-3.43l-2.92-3.13a8.76,8.76,0,0,1-12.34,1,9.44,9.44,0,0,1-1-1l-3.12,2.61a13.68,13.68,0,0,0,4.58,4.37,10.42,10.42,0,0,0,3.65,19.8v4.48h-5.52v4.27h5.52v7h4.17v-7h5.52v-4.17h-5.63v-4.58a10.42,10.42,0,0,0,8.75-10.42"/><path class="cls-6" d="M391.33,286.16h-7.08v-6.67h-3.34v7.29h-7.29a17.37,17.37,0,0,0,3.23-13.44,17.73,17.73,0,0,0-6.25-9.17,13.33,13.33,0,0,0-9.69-2.39v4.89a9.7,9.7,0,0,1,11.31,7.75,9.52,9.52,0,0,1,.15,1.32,8.65,8.65,0,0,1-6.4,10.42,8.8,8.8,0,0,1-4,0v5h19v4.37h-1.45v4.9h6.25v-4.9h-.84v-4.69h12v-5.73h-5.52Z"/><path class="cls-7" d="M770.89,494.53a5.84,5.84,0,0,0,0-1.77,3.66,3.66,0,0,0-1.67-3.13,3.19,3.19,0,0,0-2-.62,3.75,3.75,0,0,0-3.75,3.75h0a3.64,3.64,0,0,0,2.81,3.54,16.38,16.38,0,0,1,0,7.5,14.89,14.89,0,0,1-10.42,12.61,12.29,12.29,0,0,1-12.39-5.73,15.94,15.94,0,0,1-2.3-14.69,3.53,3.53,0,0,0,2-3.23,3.75,3.75,0,1,0-7.39,0,3.5,3.5,0,0,0,.72,2.29v5.21a19.39,19.39,0,0,0,16.67,20.84,18.76,18.76,0,0,0,18.45-17.3,27.26,27.26,0,0,0-.73-9.17"/><path class="cls-7" d="M714.83,356.17v29.9H719V374.92l3.65-2.91,1.35-1.15a3.2,3.2,0,0,1,5,0c2.19,2.6,2.5,14.17,12.71,13a17,17,0,0,0,4.9-2.91l-2.29-3.23c-7,7-8.54-2.61-11.57-8.55a6.14,6.14,0,0,0-7.89-3.63l-.23.09-3.86,2.4L719,369.19V355.65h2.08v-4.48h-8.43v4.48h1.66Z"/><path class="cls-7" d="M738.17,631.64A19.49,19.49,0,0,0,721.5,610.8,18.86,18.86,0,0,0,703,628.1a27,27,0,0,0,.83,9.17,3.54,3.54,0,0,0,0,1.77,3.74,3.74,0,0,0,1.56,3.12,3.43,3.43,0,0,0,2,.63,3.75,3.75,0,0,0,.94-7.29,14.28,14.28,0,0,1,0-7.51,14.57,14.57,0,0,1,10.42-12.6,12.19,12.19,0,0,1,12.4,5.73,15.52,15.52,0,0,1,2.18,14.69A3.72,3.72,0,1,0,738.8,639a3.16,3.16,0,0,0-.84-2.19v-5.31"/><path class="cls-7" d="M634.61,284.28a13,13,0,1,0-5.31,0v1.88h-5.42v4.68h5.42v7.3H634v-7.3h5.42v-4.68H634v-1.78m-2.7-3.64a9.17,9.17,0,1,1,10.1-9.17,9.05,9.05,0,0,1-9,9.07h-.43Z"/><path class="cls-7" d="M510.52,245.94a10.43,10.43,0,0,0-5.94-9.59,20,20,0,0,0,4.28-3.43l-2.92-3.13a8.76,8.76,0,0,1-12.34,1,9.44,9.44,0,0,1-1-1l-3.12,2.61a13.68,13.68,0,0,0,4.58,4.37,10.42,10.42,0,0,0,3.65,19.8v4.48h-5.52v4.27h5.52v7h4.17v-7h5.52v-4.17h-5.63v-4.58a10.42,10.42,0,0,0,8.75-10.42"/><path class="cls-7" d="M391.33,286.16h-7.08v-6.67h-3.34v7.29h-7.29a17.37,17.37,0,0,0,3.23-13.44,17.73,17.73,0,0,0-6.25-9.17,13.33,13.33,0,0,0-9.69-2.39v4.89a9.7,9.7,0,0,1,11.31,7.75,9.52,9.52,0,0,1,.15,1.32,8.65,8.65,0,0,1-6.4,10.42,8.8,8.8,0,0,1-4,0v5h19v4.37h-1.45v4.9h6.25v-4.9h-.84v-4.69h12v-5.73h-5.52Z"/></svg>